PathFileType	4	(X/Y/Z)	C:/Users/beibeiliu/ov580/test_trc/User2\sequence.33_training_dense_right.trc
DataRate	CameraRate	NumFrames	NumMarkers	Units	OrigDataRate	OrigDataStartFrame	OrigNumFrames
120	120	22	19	mm	120	319	424
Frame#	Time	ThumbCMC			ThumbMCP			ThumbIP			ThumbTip			IndexMCP			IndexPIP			IndexTip			MiddleMCP			MiddlePIP			MiddleTip			RingMCP			RingPIP			RingTip			PinkyMCP			PinkyPIP			PinkyTip			BackHand1			BackHand2			BackHand3	
		X0	Y0	Z0	X1	Y1	Z1	X2	Y2	Z2	X3	Y3	Z3	X4	Y4	Z4	X5	Y5	Z5	X6	Y6	Z6	X7	Y7	Z7	X8	Y8	Z8	X9	Y9	Z9	X10	Y10	Z10	X11	Y11	Z11	X12	Y12	Z12	X13	Y13	Z13	X14	Y14	Z14	X15	Y15	Z15	X16	Y16	Z16	X17	Y17	Z17	X18	Y18	Z18	
318	2.65	59.0258	-23.2401	69.291	28.6975	-22.4171	85.3106	-0.49522	-44.8362	99.3221	-7.7305	-67.1441	109.15	9.28478	-84.3316	66.0927	8.00149	-80.3599	98.3875	36.6723	-57.36	99.1042	20.1853	-105.541	73.5003	13.6244	-95.2946	105.555	42.659	-63.9232	110.769	36.4363	-114.913	84.9115	30.1553	-97.9155	113.975	52.906	-69.554	104.833	54.972	-118.07	98.8514	52.4934	-94.5108	122.939	66.4763	-67.1321	109.06	84.4758	-89.2732	52.6206	112.106	-69.4548	55.5796	78.1078	-55.3085	44.5763	
319	2.65833	60.8128	-20.4009	72.3017	26.954	-29.0108	85.8015	-1.58012	-49.2018	97.4618	-10.7021	-74.3619	106.398	15.5816	-87.1294	58.5854	8.5551	-87.211	89.8272	34.8532	-58.5855	94.8475	25.0185	-105.24	63.5017	17.7649	-99.076	100.713	39.8029	-70.4243	107.82	36.8162	-116.801	79.7349	36.1022	-106.162	109.009	58.1297	-74.4839	102.389	61.6933	-119.107	90.4612	55.2166	-98.3501	115.639	68.1707	-70.4939	107.738	88.7422	-87.9202	49.3472	118.734	-65.4992	55.276	81.2838	-50.7783	43.859	
320	2.66667	57.4587	-24.769	68.6362	27.6933	-32.2915	83.025	1.27872	-55.3026	92.6286	-7.8606	-82.3492	97.6658	19.8448	-90.5495	50.9553	10.5761	-88.8554	82.2701	36.5162	-64.894	89.0742	28.4602	-109.679	55.6527	19.8143	-106.404	89.1649	42.3046	-74.0522	100.143	46.0228	-121.772	71.8989	40.6603	-110.014	100.873	59.5543	-77.3952	98.2018	64.6518	-119.815	80.8408	56.2753	-101.878	107.122	72.7363	-71.1142	102.457	94.242	-84.5427	45.8796	120.889	-61.5756	55.9919	85.4774	-45.6284	41.4405	
321	2.675	61.5627	-24.0706	66.1903	29.2692	-35.4624	76.0533	-0.0308026	-59.1024	82.3313	-4.91849	-89.9592	84.6732	25.3859	-89.7464	37.8688	17.4898	-92.8289	70.3336	38.1259	-68.0125	78.9766	37.9713	-113.845	43.9999	26.4194	-112.018	76.1917	46.4832	-79.9441	91.4888	49.8744	-119.557	57.3856	41.2842	-113.029	88.4362	56.3532	-82.8442	90.282	66.2299	-122.042	74.5614	58.4105	-104.546	99.2894	73.7777	-74.3103	94.0271	102.351	-83.4775	39.6584	124.656	-60.2473	51.231	91.254	-49.1829	37.5404	
322	2.68333	63.7458	-26.6886	56.8662	33.8337	-40.9591	63.7018	4.31959	-63.8392	66.4163	1.13539	-89.7265	68.1448	35.8541	-89.8629	22.629	19.2196	-94.1163	52.6263	41.8084	-73.3797	67.5282	43.2943	-110.651	26.9946	26.8491	-112.325	58.8522	45.3188	-79.6504	78.1619	55.4503	-122.934	45.5093	43.5344	-113.861	73.5211	60.4727	-82.9868	78.3995	72.2497	-126.671	63.6166	58.1749	-108.892	83.9586	77.6465	-78.5629	85.9424	111.255	-87.0634	35.2766	130.905	-62.6931	48.9791	100.627	-47.0068	34.28	
323	2.69167	69.9238	-26.9203	50.7631	36.4394	-41.7582	50.9115	11.2784	-61.8048	51.5115	2.32015	-91.8924	49.0718	41.2627	-88.8411	6.76206	24.5289	-96.98	34.3796	42.7554	-72.6767	55.4881	55.0557	-109.288	10.6844	30.0732	-112.128	40.8806	43.4005	-86.5187	64.0166	64.1391	-121.849	28.4987	43.4372	-115.188	53.9991	61.0395	-88.802	67.77	75.7655	-127.266	49.0781	57.2923	-109.684	69.6919	75.4016	-81.1922	75.6076	114.962	-81.8911	27.8949	133.966	-60.5816	45.4995	106.548	-42.674	27.8587	
324	2.7	72.3491	-27.4838	42.2236	38.0843	-39.2172	37.33	14.9986	-62.5036	32.9253	5.8585	-89.5211	27.5123	48.8111	-82.4565	-9.00818	27.0147	-93.9352	15.6832	43.2744	-74.6581	44.0059	60.7328	-104.299	-4.82179	34.9727	-111.803	22.0602	43.7999	-90.4388	48.9085	69.2056	-119.651	12.2304	49.1925	-120.809	37.0876	61.0355	-89.5198	53.1894	78.4214	-124.309	31.3007	60.2256	-112.965	55.2072	73.6444	-87.736	62.9735	122.256	-82.2291	25.1268	137.969	-60.8123	43.543	108.384	-43.4243	21.3567	
325	2.70833	78.1946	-22.964	39.6421	43.9934	-35.2372	27.8624	19.2153	-56.5235	16.0116	11.8069	-84.1018	5.5598	56.9186	-74.9077	-23.2052	37.2985	-92.1255	-6.44872	43.1387	-78.3514	26.9893	68.9566	-96.1046	-20.4383	42.3568	-108.643	0.899474	47.078	-92.454	33.6843	77.2072	-111.185	-4.95669	54.3921	-116.969	13.5426	65.9709	-90.9827	40.1911	86.7884	-123.499	16.4008	62.9405	-114.116	36.6226	77.4848	-86.2876	48.7709	126.891	-76.0122	15.6782	141.432	-59.3465	40.2203	114.19	-37.0183	17.3666	
326	2.71667	82.3673	-17.9033	37.0769	51.798	-31.7956	19.875	29.1156	-51.1145	0.279219	22.2638	-73.2707	-9.97553	70.3035	-69.5678	-32.6833	46.5562	-84.7869	-22.9759	41.9561	-74.9542	11.3275	82.7787	-86.6597	-30.6193	50.6119	-104.297	-14.7252	47.2474	-89.2889	20.5254	88.298	-104.032	-16.2992	60.8728	-115.49	-0.328677	64.3849	-91.1991	27.9555	93.5755	-118.711	2.44735	66.3069	-112.024	21.5044	72.5395	-89.2494	40.4252	132.02	-69.3449	12.8848	147.689	-56.8212	41.4081	124.416	-34.881	20.6404	
327	2.725	90.3872	-18.6814	31.9706	57.8139	-20.8295	16.2984	37.6363	-38.5948	-3.61302	28.2258	-62.6124	-20.8368	80.6163	-55.9436	-38.8292	52.5408	-74.2352	-33.211	43.0967	-66.7541	2.02505	88.4798	-81.2096	-37.2772	56.4834	-94.1025	-30.1773	48.3021	-83.6033	10.5568	91.1032	-100.492	-22.9726	62.248	-104.196	-13.7483	61.4095	-85.6044	18.4812	96.7069	-112.341	-4.08238	67.1627	-109.025	10.4736	73.1139	-83.5831	32.991	138.43	-70.9771	12.3041	149.379	-53.589	39.5425	129.902	-32.6761	17.2848	
328	2.73333	96.1485	-11.4901	31.8256	67.2872	-17.3462	13.584	42.78	-27.1122	-6.73268	27.4319	-47.5301	-24.8955	85.4375	-47.4767	-40.6185	54.3029	-62.6553	-37.7933	44.1576	-56.593	-4.369	91.6802	-73.7873	-39.3917	53.8687	-82.0777	-31.9271	44.1836	-75.4437	4.15747	88.09	-90.6006	-27.4816	61.2207	-97.8503	-15.1428	59.2317	-75.8556	18.5046	95.809	-102.898	-6.35471	63.3381	-97.7089	6.00288	63.9736	-78.6309	27.0735	138.758	-67.1538	13.0502	150.932	-58.0318	41.5539	133.033	-29.898	17.9443	
329	2.74167	101.872	-5.95545	31.7473	70.4939	-9.60106	14.6095	43.0999	-16.6119	-8.38343	31.795	-38.7686	-21.5585	88.2073	-44.6304	-39.0812	53.0861	-54.8499	-37.6018	44.485	-49.2782	-1.36701	86.1174	-69.58	-38.7127	50.4958	-75.6469	-29.2366	39.5077	-62.2726	4.67504	88.4542	-87.6804	-21.6379	55.4984	-90.216	-10.1189	52.9106	-69.2178	16.3219	90.6466	-101.08	-3.19221	58.854	-95.5166	9.60643	63.6974	-69.7377	30.2034	137.24	-63.9904	12.684	152.525	-56.7511	40.5203	138.136	-24.7382	17.5803	
330	2.75	102.809	-3.30277	28.8645	70.6893	-1.81465	15.3132	45.212	-12.3521	-1.92598	26.5482	-33.2951	-18.3335	83.238	-42.5774	-36.0816	49.7481	-50.6844	-31.8574	40.7033	-41.2866	-0.308811	80.209	-63.6479	-35.5317	46.4006	-69.4857	-25.2609	36.4832	-58.5702	11.1273	77.8977	-83.5045	-18.7951	47.441	-77.9461	-5.00697	50.6828	-59.2151	25.1312	85.4	-96.8877	2.96995	54.8972	-86.3876	15.1142	60.0578	-61.4896	36.5805	133.805	-62.5149	14.8202	150.691	-56.7373	40.4836	137.064	-24.172	18.7799	
331	2.75833	104.68	6.21876	35.8465	68.4953	2.54004	19.8621	39.743	-7.52663	4.63637	21.24	-24.8289	-4.96568	70.8301	-38.3146	-32.3719	39.1286	-42.5431	-21.6544	36.4368	-37.0471	9.70967	70.0015	-59.4413	-26.5139	36.2133	-64.0822	-9.22774	31.6507	-47.8178	24.2403	71.5048	-77.5262	-7.79197	41.8764	-74.1916	6.81821	45.9664	-54.8683	36.0149	73.7623	-89.3634	10.6396	48.2745	-77.55	27.4753	57.1564	-56.0547	47.9177	128.903	-65.5373	16.4871	148.77	-53.9447	44.9792	132.672	-26.5952	17.5553	
332	2.76667	104.217	5.00589	39.4839	68.6656	10.2995	33.4081	35.3457	0.00887033	19.5294	16.4464	-22.2623	13.9475	61.5618	-35.313	-20.7781	32.2807	-42.2295	-7.82233	32.4745	-29.9835	25.0462	58.0831	-56.5154	-11.0737	25.2356	-56.3682	7.67161	28.9725	-39.6789	46.1494	57.2201	-75.5673	7.42624	34.0582	-68.2518	26.6288	45.0607	-42.4542	52.443	62.5877	-86.1615	27.1531	43.045	-66.9887	46.3138	62.3124	-48.5478	65.8009	120.204	-65.6842	20.6284	145.084	-51.964	45.7013	130.732	-24.7598	23.0682	
333	2.775	101.316	9.38594	43.7119	64.9292	10.8765	39.6613	31.7007	3.35773	35.9384	12.9752	-16.6258	34.713	52.1649	-35.6657	-6.10978	22.7124	-35.7198	6.57718	30.3631	-20.1668	41.0564	48.829	-58.4654	4.48231	17.5459	-52.461	27.3495	27.0907	-36.2467	61.5886	46.4973	-72.7016	22.7638	27.127	-62.5919	45.7578	42.7996	-41.7592	67.3823	57.3411	-79.4811	39.2823	39.4226	-65.9598	59.8308	62.489	-42.6918	79.305	113.483	-64.4248	29.0238	141.235	-50.4174	46.7283	122.617	-25.9102	21.3948	
334	2.78333	95.463	6.50307	47.1657	60.1731	11.0491	49.7737	25.7679	-0.927198	49.7405	11.616	-24.1265	53.4772	42.6192	-37.2428	6.98535	15.1581	-37.701	29.3963	32.5738	-18.8858	57.1587	38.3196	-57.8458	19.7557	13.0581	-52.0194	42.2325	28.027	-30.9624	78.0755	44.6679	-73.7489	37.2981	23.9715	-65.3975	62.6546	41.6474	-38.8133	78.9806	55.9909	-83.7063	54.5721	37.3698	-63.8152	78.0905	58.0542	-44.2505	88.5022	107.168	-63.9771	37.5681	137.917	-47.5239	50.2791	118.244	-25.0461	27.1456	
335	2.79167	87.1958	8.60677	49.8309	52.8577	9.34911	57.8939	18.9833	-3.58109	63.4811	6.85788	-23.9138	71.7471	27.9662	-42.2837	23.8816	10.3433	-42.776	48.665	31.8747	-18.1991	68.9896	34.6789	-65.2438	36.654	11.1828	-56.4994	65.4689	32.7775	-32.8368	91.9759	37.2361	-75.4131	51.3742	21.0123	-64.5598	77.0092	46.893	-40.3734	93.2002	54.5582	-85.121	65.7107	36.5225	-69.3803	90.8271	54.4823	-44.492	97.8669	104.378	-63.0255	41.9515	133.925	-49.755	51.3152	108.717	-24.5427	31.3555	
336	2.8	81.9457	0.328478	57.3535	46.2521	9.47978	68.8761	18.0634	-12.1434	79.9025	5.85352	-32.2157	89.9215	25.3427	-49.3528	39.8931	4.75944	-43.0463	66.3751	34.2068	-25.0105	83.9134	28.185	-68.793	50.4018	8.99877	-61.1136	80.6355	37.5256	-34.3559	102.841	34.1402	-81.6666	65.4529	21.6957	-72.8493	92.8636	45.5469	-46.0406	101.089	50.7867	-90.0669	79.2029	36.7989	-71.7651	103.989	55.6668	-48.7489	103.436	95.7845	-69.1499	48.6769	125.043	-54.8518	53.8369	100.911	-30.9813	35.8745	
337	2.80833	74.3829	1.64059	64.2203	37.7143	0.415391	79.695	12.5394	-17.9617	94.0241	1.8888	-43.5558	104.93	13.0187	-53.0809	53.8346	5.13195	-51.0919	85.2664	29.9366	-30.0278	95.8588	22.3963	-77.8003	65.542	8.25053	-66.0861	95.347	35.065	-42.6821	111.725	35.7363	-91.2016	77.9456	24.2269	-80.3786	105.345	48.4159	-49.9534	108.069	52.3059	-95.9732	87.8837	38.3674	-75.9779	113.292	58.9423	-50.7835	112.326	95.0382	-72.3012	53.5679	120.528	-51.8617	56.7083	90.0245	-33.4709	41.7949	
338	2.81667	69.6257	-4.32417	75.4719	31.2718	-7.45219	92.7526	7.30312	-29.4496	109.263	1.1349	-54.4073	117.364	14.2753	-62.2369	65.9937	2.94614	-56.4975	99.0463	33.2995	-38.2503	106.631	20.1851	-85.1407	76.1721	12.9487	-75.5484	111	35.8146	-46.2949	118.58	34.7078	-98.6364	86.477	26.7209	-85.4474	114.451	50.1073	-58.0929	116.002	52.8008	-101.41	97.0152	45.0664	-82.6147	123.9	60.6693	-55.9413	117.098	88.8164	-70.7935	55.4979	113.681	-52.5063	57.5699	83.791	-33.8878	45.9603	
339	2.825	57.8653	-9.18621	83.5321	31.7269	-13.2812	104.781	8.0038	-40.3834	118.211	-0.749814	-67.5266	127.192	8.34831	-70.2534	78.0578	2.01923	-67.4101	106.812	30.9324	-44.0004	113.722	19.4014	-92.3259	81.9997	14.761	-87.8224	115.602	40.0934	-52.2852	124.505	35.6388	-104.452	91.5879	31.517	-95.2796	121.289	51.8458	-60.9749	118.586	57.0526	-105.851	99.8969	49.1099	-90.5916	128.107	64.8938	-62.6883	122.217	85.0588	-73.978	58.065	112.24	-48.6605	59.141	75.8221	-32.8821	50.8781	
